<svg width="32" height="32" viewBox="0 0 32 32" fill="none" xmlns="http://www.w3.org/2000/svg">
<path d="M17.2 15.86C17.2 16.124 17.1217 16.3821 16.975 16.6017C16.8283 16.8212 16.6198 16.9923 16.3759 17.0934C16.132 17.1944 15.8635 17.2209 15.6046 17.1693C15.3456 17.1178 15.1077 16.9907 14.921 16.804C14.7343 16.6173 14.6072 16.3794 14.5557 16.1204C14.5041 15.8615 14.5306 15.5931 14.6316 15.3491C14.7327 15.1052 14.9038 14.8967 15.1233 14.75C15.3429 14.6033 15.601 14.525 15.865 14.525C16.2191 14.525 16.5586 14.6657 16.809 14.916C17.0594 15.1664 17.2 15.5059 17.2 15.86V15.86ZM21.931 14.525C21.667 14.525 21.4089 14.6033 21.1893 14.75C20.9698 14.8967 20.7987 15.1052 20.6976 15.3491C20.5966 15.5931 20.5702 15.8615 20.6217 16.1204C20.6732 16.3794 20.8003 16.6173 20.987 16.804C21.1737 16.9907 21.4116 17.1178 21.6706 17.1693C21.9295 17.2209 22.198 17.1944 22.4419 17.0934C22.6858 16.9923 22.8943 16.8212 23.041 16.6017C23.1877 16.3821 23.266 16.124 23.266 15.86C23.266 15.6843 23.2313 15.5103 23.1639 15.348C23.0965 15.1857 22.9977 15.0383 22.8732 14.9142C22.7487 14.7902 22.601 14.692 22.4384 14.6252C22.2759 14.5584 22.1017 14.5243 21.926 14.525H21.931ZM19.211 10.625C19.0242 10.8116 18.8969 11.0495 18.8453 11.3085C18.7936 11.5675 18.82 11.836 18.921 12.08C19.022 12.3241 19.1931 12.5326 19.4127 12.6794C19.6322 12.8261 19.8904 12.9045 20.1545 12.9045C20.4186 12.9045 20.6768 12.8261 20.8963 12.6794C21.1159 12.5326 21.287 12.3241 21.388 12.08C21.489 11.836 21.5154 11.5675 21.4638 11.3085C21.4121 11.0495 21.2849 10.8116 21.098 10.625C20.9738 10.5006 20.8263 10.4019 20.6639 10.3346C20.5015 10.2673 20.3274 10.2328 20.1516 10.233C19.9758 10.2332 19.8018 10.2681 19.6395 10.3357C19.4772 10.4033 19.3299 10.5023 19.206 10.627L19.211 10.625ZM14.53 9.793C14.5298 10.0573 14.6081 10.3157 14.7549 10.5355C14.9017 10.7553 15.1104 10.9265 15.3546 11.0276C15.5988 11.1286 15.8675 11.1549 16.1267 11.1031C16.3859 11.0513 16.6238 10.9237 16.8104 10.7366C16.997 10.5494 17.1239 10.3111 17.1749 10.0517C17.2259 9.79242 17.1988 9.52378 17.097 9.27987C16.9953 9.03597 16.8234 8.82776 16.6032 8.68162C16.3829 8.53549 16.1243 8.45801 15.86 8.459C15.5059 8.459 15.1664 8.59965 14.916 8.85001C14.6657 9.10037 14.525 9.43994 14.525 9.794L14.53 9.793ZM10.63 12.513C10.8167 12.6998 11.0545 12.8271 11.3135 12.8787C11.5725 12.9304 11.841 12.904 12.085 12.803C12.3291 12.702 12.5376 12.5309 12.6844 12.3113C12.8312 12.0918 12.9095 11.8336 12.9095 11.5695C12.9095 11.3054 12.8312 11.0472 12.6844 10.8277C12.5376 10.6081 12.3291 10.437 12.085 10.336C11.841 10.235 11.5725 10.2086 11.3135 10.2603C11.0545 10.3119 10.8167 10.4392 10.63 10.626C10.5058 10.7498 10.4073 10.8968 10.3399 11.0586C10.2726 11.2205 10.2378 11.3941 10.2375 11.5694C10.2372 11.7447 10.2715 11.9184 10.3383 12.0804C10.4051 12.2425 10.5032 12.3898 10.627 12.514L10.63 12.513ZM9.79401 17.2C10.0578 17.2 10.3157 17.1218 10.5352 16.9754C10.7546 16.8289 10.9257 16.6207 11.0269 16.377C11.1281 16.1334 11.1548 15.8652 11.1037 15.6064C11.0526 15.3476 10.926 15.1097 10.7398 14.9228C10.5535 14.7359 10.3161 14.6083 10.0575 14.5563C9.79887 14.5042 9.53061 14.5299 9.28658 14.6302C9.04256 14.7305 8.83372 14.9008 8.68642 15.1197C8.53913 15.3386 8.46 15.5962 8.45901 15.86C8.45835 16.0357 8.4924 16.2099 8.55919 16.3724C8.62599 16.535 8.72422 16.6827 8.84825 16.8072C8.97228 16.9317 9.11967 17.0305 9.28197 17.0979C9.44427 17.1653 9.61827 17.2 9.79401 17.2V17.2ZM12.514 21.1C12.7009 20.9134 12.8281 20.6755 12.8798 20.4165C12.9314 20.1575 12.905 19.889 12.804 19.645C12.703 19.4009 12.5319 19.1924 12.3123 19.0456C12.0928 18.8989 11.8346 18.8205 11.5705 18.8205C11.3064 18.8205 11.0482 18.8989 10.8287 19.0456C10.6091 19.1924 10.438 19.4009 10.337 19.645C10.236 19.889 10.2096 20.1575 10.2613 20.4165C10.3129 20.6755 10.4402 20.9134 10.627 21.1C10.8781 21.3493 11.2179 21.4887 11.5718 21.4875C11.9256 21.4864 12.2645 21.3449 12.514 21.094V21.1ZM17.195 21.932C17.195 21.668 17.1167 21.4099 16.97 21.1903C16.8233 20.9708 16.6148 20.7997 16.3709 20.6986C16.127 20.5976 15.8585 20.5711 15.5996 20.6227C15.3406 20.6742 15.1027 20.8013 14.916 20.988C14.7293 21.1747 14.6022 21.4126 14.5507 21.6716C14.4991 21.9305 14.5256 22.1989 14.6266 22.4429C14.7277 22.6868 14.8988 22.8953 15.1183 23.042C15.3379 23.1887 15.596 23.267 15.86 23.267C16.0363 23.2677 16.2109 23.2334 16.3738 23.1663C16.5368 23.0991 16.6848 23.0003 16.8094 22.8756C16.9339 22.751 17.0326 22.6029 17.0996 22.4399C17.1667 22.2769 17.2008 22.1022 17.2 21.926L17.195 21.932ZM21.095 19.212C20.9084 19.0252 20.6705 18.8979 20.4115 18.8463C20.1525 18.7946 19.884 18.821 19.64 18.922C19.396 19.023 19.1874 19.1941 19.0406 19.4137C18.8939 19.6332 18.8155 19.8914 18.8155 20.1555C18.8155 20.4196 18.8939 20.6778 19.0406 20.8973C19.1874 21.1169 19.396 21.288 19.64 21.389C19.884 21.49 20.1525 21.5164 20.4115 21.4647C20.6705 21.4131 20.9084 21.2858 21.095 21.099C21.2197 20.9749 21.3186 20.8273 21.386 20.6649C21.4535 20.5024 21.4881 20.3282 21.488 20.1523C21.4879 19.9764 21.4531 19.8022 21.3855 19.6398C21.3178 19.4774 21.2188 19.33 21.094 19.206L21.095 19.212ZM27.387 14.531C27.1226 14.5306 26.8641 14.6087 26.6442 14.7554C26.4242 14.9022 26.2528 15.1109 26.1516 15.3551C26.0505 15.5994 26.0241 15.8682 26.0759 16.1274C26.1276 16.3867 26.2552 16.6247 26.4425 16.8114C26.6297 16.9981 26.8681 17.1249 27.1275 17.1759C27.3869 17.2269 27.6557 17.1997 27.8996 17.0978C28.1436 16.9959 28.3517 16.8239 28.4978 16.6035C28.6439 16.3832 28.7212 16.1244 28.72 15.86C28.72 15.5061 28.5795 15.1667 28.3294 14.9164C28.0792 14.666 27.7399 14.5253 27.386 14.525L27.387 14.531ZM25.174 8.941C24.946 9.0733 24.7623 9.27018 24.6461 9.5068C24.5299 9.74342 24.4864 10.0092 24.5211 10.2705C24.5558 10.5318 24.6672 10.777 24.8411 10.9751C25.015 11.1731 25.2438 11.3152 25.4984 11.3834C25.753 11.4516 26.0222 11.4428 26.2718 11.3582C26.5215 11.2736 26.7405 11.1168 26.9011 10.9078C27.0618 10.6988 27.1569 10.4469 27.1745 10.1839C27.1921 9.92088 27.1314 9.65854 27 9.43C26.9124 9.27783 26.7956 9.14445 26.6563 9.03748C26.5171 8.93052 26.3581 8.85208 26.1885 8.80665C26.0188 8.76123 25.8419 8.74971 25.6679 8.77277C25.4938 8.79582 25.326 8.85299 25.174 8.941ZM20.468 5.211C20.3363 5.43954 20.2753 5.70201 20.2927 5.96522C20.3101 6.22843 20.4052 6.48057 20.5659 6.68977C20.7265 6.89896 20.9457 7.05582 21.1955 7.14052C21.4453 7.22521 21.7146 7.23394 21.9694 7.1656C22.2242 7.09726 22.453 6.95491 22.6269 6.75656C22.8008 6.55821 22.912 6.31275 22.9464 6.05122C22.9808 5.78969 22.9369 5.52382 22.8203 5.28723C22.7036 5.05064 22.5194 4.85394 22.291 4.722C22.1392 4.63433 21.9716 4.57743 21.7979 4.55455C21.6241 4.53168 21.4475 4.54328 21.2782 4.58869C21.1089 4.63411 20.9502 4.71244 20.8112 4.81922C20.6721 4.926 20.5555 5.05913 20.468 5.211V5.211ZM14.526 4.335C14.526 4.59908 14.6043 4.85723 14.7511 5.07679C14.8978 5.29635 15.1064 5.46746 15.3504 5.56848C15.5944 5.66949 15.8628 5.69587 16.1218 5.64428C16.3808 5.59268 16.6187 5.46544 16.8054 5.27863C16.992 5.09183 17.1191 4.85386 17.1705 4.59483C17.2219 4.3358 17.1953 4.06735 17.0941 3.82342C16.9929 3.5795 16.8216 3.37107 16.602 3.2245C16.3823 3.07793 16.1241 2.9998 15.86 3C15.5059 3 15.1664 3.14065 14.916 3.39101C14.6657 3.64137 14.525 3.98094 14.525 4.335H14.526ZM8.94101 6.546C9.07283 6.77456 9.26946 6.95889 9.50605 7.07569C9.74263 7.19249 10.0085 7.23651 10.2701 7.20218C10.5317 7.16786 10.7773 7.05673 10.9757 6.88284C11.1742 6.70896 11.3166 6.48014 11.385 6.22531C11.4534 5.97048 11.4447 5.7011 11.36 5.45122C11.2753 5.20135 11.1183 4.9822 10.9091 4.8215C10.6998 4.6608 10.4476 4.56577 10.1843 4.54841C9.92106 4.53106 9.65855 4.59216 9.43001 4.724C9.12377 4.90097 8.90027 5.19223 8.80858 5.53384C8.7169 5.87545 8.76453 6.23948 8.94101 6.546V6.546ZM5.21101 11.253C5.43955 11.3847 5.70202 11.4457 5.96523 11.4283C6.22844 11.4109 6.48058 11.3158 6.68978 11.1552C6.89897 10.9945 7.05583 10.7754 7.14053 10.5255C7.22522 10.2757 7.23395 10.0064 7.16561 9.75162C7.09726 9.49684 6.95492 9.26804 6.75657 9.09414C6.55822 8.92024 6.31276 8.80906 6.05123 8.77464C5.7897 8.74021 5.52383 8.7841 5.28724 8.90075C5.05065 9.0174 4.85395 9.20158 4.72201 9.43C4.63433 9.58179 4.57743 9.74937 4.55456 9.92316C4.53169 10.0969 4.54329 10.2735 4.5887 10.4428C4.63412 10.6121 4.71245 10.7708 4.81923 10.9099C4.92601 11.0489 5.05914 11.1655 5.21101 11.253V11.253ZM4.33501 17.2C4.59883 17.2 4.85674 17.1218 5.07617 16.9754C5.2956 16.8289 5.46671 16.6207 5.5679 16.377C5.66909 16.1334 5.69582 15.8652 5.64471 15.6064C5.5936 15.3476 5.46695 15.1097 5.28075 14.9228C5.09455 14.7359 4.85714 14.6083 4.59851 14.5563C4.33987 14.5042 4.07161 14.5299 3.82758 14.6302C3.58356 14.7305 3.37472 14.9008 3.22742 15.1197C3.08013 15.3386 3.001 15.5962 3.00001 15.86C2.99935 16.0357 3.0334 16.2099 3.10019 16.3724C3.16699 16.535 3.26522 16.6827 3.38925 16.8072C3.51328 16.9317 3.66067 17.0305 3.82297 17.0979C3.98527 17.1653 4.15927 17.2 4.33501 17.2V17.2ZM6.54601 22.784C6.77443 22.6521 6.95861 22.4554 7.07526 22.2188C7.19191 21.9822 7.2358 21.7163 7.20137 21.4548C7.16695 21.1932 7.05577 20.9478 6.88187 20.7494C6.70797 20.5511 6.47917 20.4087 6.22439 20.3404C5.96961 20.2721 5.70029 20.2808 5.45047 20.3655C5.20065 20.4502 4.98155 20.607 4.82086 20.8162C4.66017 21.0254 4.56511 21.2776 4.54769 21.5408C4.53027 21.804 4.59128 22.0665 4.72301 22.295C4.90081 22.6007 5.19263 22.8233 5.53441 22.914C5.87618 23.0048 6.24 22.9562 6.54601 22.779V22.784ZM11.252 26.514C11.3843 26.2857 11.4459 26.0232 11.4291 25.7599C11.4122 25.4965 11.3176 25.2441 11.1572 25.0345C10.9969 24.8249 10.7779 24.6676 10.5282 24.5825C10.2784 24.4974 10.009 24.4882 9.75398 24.5562C9.499 24.6243 9.26993 24.7664 9.09573 24.9646C8.92153 25.1628 8.81004 25.4083 8.77536 25.6699C8.74068 25.9315 8.78437 26.1975 8.9009 26.4342C9.01743 26.671 9.20156 26.8679 9.43001 27C9.58192 27.0876 9.7496 27.1444 9.92347 27.1671C10.0973 27.1898 10.274 27.1781 10.4433 27.1325C10.6126 27.0869 10.7713 27.0083 10.9102 26.9013C11.0492 26.7944 11.1656 26.661 11.253 26.509L11.252 26.514ZM17.194 27.391C17.1952 27.1267 17.1179 26.8679 16.9719 26.6476C16.8259 26.4272 16.6177 26.2552 16.3738 26.1533C16.1299 26.0513 15.8613 26.0241 15.6019 26.075C15.3425 26.1259 15.1041 26.2527 14.9168 26.4392C14.7295 26.6258 14.6019 26.8638 14.55 27.123C14.4981 27.3821 14.5243 27.6509 14.6254 27.8952C14.7264 28.1395 14.8976 28.3482 15.1174 28.4951C15.3372 28.6419 15.5957 28.7202 15.86 28.72C16.0357 28.7207 16.2097 28.6866 16.3722 28.6199C16.5347 28.5532 16.6824 28.455 16.8069 28.3311C16.9314 28.2072 17.0302 28.0599 17.0976 27.8977C17.1651 27.7356 17.1999 27.5617 17.2 27.386L17.194 27.391ZM22.778 25.18C22.6463 24.9512 22.4497 24.7666 22.2131 24.6496C21.9765 24.5326 21.7105 24.4884 21.4487 24.5227C21.187 24.5569 20.9413 24.6681 20.7427 24.842C20.5442 25.016 20.4017 25.245 20.3333 25.4999C20.265 25.7549 20.2738 26.0244 20.3587 26.2744C20.4436 26.5243 20.6007 26.7435 20.8102 26.9041C21.0197 27.0647 21.2721 27.1595 21.5355 27.1766C21.799 27.1937 22.0615 27.1322 22.29 27C22.4422 26.9124 22.5756 26.7956 22.6825 26.6563C22.7895 26.5171 22.8679 26.3581 22.9134 26.1885C22.9588 26.0188 22.9703 25.8419 22.9472 25.6678C22.9242 25.4938 22.867 25.3259 22.779 25.174L22.778 25.18ZM26.508 20.474C26.2792 20.3419 26.0164 20.2808 25.7529 20.2983C25.4893 20.3157 25.2368 20.4111 25.0275 20.5722C24.8182 20.7333 24.6614 20.9529 24.577 21.2032C24.4926 21.4535 24.4844 21.7232 24.5535 21.9782C24.6226 22.2331 24.7658 22.4618 24.965 22.6353C25.1642 22.8088 25.4104 22.9192 25.6724 22.9526C25.9345 22.986 26.2005 22.9409 26.4368 22.8229C26.6732 22.705 26.8692 22.5195 27 22.29C27.0874 22.1381 27.1441 21.9705 27.1667 21.7968C27.1894 21.623 27.1776 21.4465 27.132 21.2773C27.0864 21.1081 27.0079 20.9495 26.901 20.8107C26.7941 20.6718 26.6609 20.5554 26.509 20.468L26.508 20.474Z" fill="#132F48"/>
</svg>
