<svg width="96" height="32" viewBox="0 0 96 32" fill="none" xmlns="http://www.w3.org/2000/svg">
<path d="M26.623 11.5C24.6471 11.5363 22.7665 12.3556 21.3944 13.7779C20.0224 15.2002 19.2712 17.1091 19.306 19.085C19.2715 20.0674 19.4353 21.0467 19.7875 21.9645C20.1396 22.8822 20.673 23.7197 21.3558 24.4268C22.0386 25.134 22.8568 25.6964 23.7617 26.0806C24.6665 26.4647 25.6395 26.6626 26.6225 26.6626C27.6055 26.6626 28.5785 26.4647 29.4833 26.0806C30.3882 25.6964 31.2064 25.134 31.8892 24.4268C32.572 23.7197 33.1054 22.8822 33.4576 21.9645C33.8097 21.0467 33.9735 20.0674 33.939 19.085C33.9741 17.1092 33.2231 15.2003 31.8512 13.778C30.4793 12.3556 28.5988 11.5363 26.623 11.5ZM26.746 25.975C24.732 25.975 24.062 23.041 24.062 19.146C24.062 15.251 24.733 12.317 26.746 12.317C28.759 12.317 29.43 15.251 29.43 19.146C29.43 23.041 28.759 25.973 26.746 25.973V25.975ZM11.124 7.274V15.774H12.653C15.331 15.774 15.787 14.794 15.93 12.6H16.785V20.244H15.93C15.788 18.079 15.303 17.013 12.653 17.013H11.124V23.4C11.124 24.767 11.779 25.594 12.947 25.651L14.372 25.709V26.457H4.001V25.709L4.827 25.651C5.07317 25.6677 5.32003 25.631 5.55071 25.5435C5.7814 25.456 5.99048 25.3197 6.16366 25.144C6.33683 24.9682 6.47003 24.7572 6.55414 24.5252C6.63825 24.2933 6.67128 24.0459 6.651 23.8V8.957C6.67222 8.71054 6.63984 8.46241 6.55608 8.22965C6.47233 7.99688 6.33918 7.78501 6.16578 7.60858C5.99239 7.43215 5.78287 7.29534 5.5516 7.20755C5.32033 7.11976 5.07279 7.08307 4.826 7.1L4 7.042V6H19.947V11.708H19.083C18.314 8.688 17.283 7.272 13.234 7.272H11.124V7.274ZM65.203 25.039H65.431V25.807L59.457 26.774V24C58.9632 24.8379 58.2608 25.5335 57.4182 26.0192C56.5756 26.5048 55.6215 26.7638 54.649 26.771C52.088 26.771 50.382 24.922 50.382 21.992V15.167C50.382 13.859 49.782 13.318 48.732 13.318H48.476V12.55L54.65 11.583V21.54C54.65 23.361 55.45 24.499 56.983 24.499C57.839 24.4408 58.6499 24.0939 59.283 23.515V15.168C59.283 13.86 58.683 13.319 57.633 13.319H57.377V12.551L63.551 11.584V23.192C63.554 24.5 64.15 25.039 65.203 25.039ZM92.759 25.75V26.461H84.935V25.75L85.277 25.722C86.301 25.636 86.529 25.068 86.529 23.816V16.476C86.529 14.399 85.477 13.688 84.31 13.688C83.8331 13.7017 83.3636 13.8101 82.929 14.0068C82.4943 14.2035 82.103 14.4847 81.778 14.834V23.816C81.778 25.068 82.006 25.637 83.03 25.722L83.372 25.75V26.461H75.918V25.75L76.26 25.722C77.284 25.636 77.512 25.068 77.512 23.816V16.476C77.512 14.399 76.46 13.688 75.293 13.688C74.318 13.7337 73.3993 14.1577 72.732 14.87V23.815C72.732 25.067 72.96 25.636 73.984 25.721L74.326 25.749V26.46H66.526V25.749L66.838 25.721C67.663 25.635 68.488 25.409 68.488 23.815V15.164C68.488 13.827 67.862 13.286 66.81 13.286H66.582V12.546L72.559 11.58V14.295C73.1368 13.456 73.9102 12.7704 74.8124 12.2974C75.7145 11.8243 76.7183 11.5781 77.737 11.58C79.785 11.58 81.18 12.559 81.578 14.351C82.1324 13.4787 82.9033 12.7649 83.8157 12.2792C84.7281 11.7936 85.7508 11.5527 86.784 11.58C89.345 11.58 90.795 13.145 90.795 16.331V23.813C90.795 25.292 91.477 25.634 92.445 25.719L92.759 25.75ZM40.726 16.78V23.8C40.726 25.34 41.553 25.682 42.381 25.711L43.009 25.739V26.452H34.509V25.739L34.823 25.711C35.65 25.625 36.478 25.34 36.478 23.8V15.13C36.478 13.79 35.85 13.248 34.795 13.248H34.567V12.508L40.729 11.538V13.987C41.2016 13.2622 41.8475 12.6668 42.6083 12.2547C43.3691 11.8426 44.2208 11.6268 45.086 11.627C45.5841 11.629 46.0683 11.7912 46.4669 12.0898C46.8656 12.3883 47.1576 12.8073 47.2996 13.2847C47.4416 13.7621 47.4262 14.2725 47.2555 14.7405C47.0849 15.2084 46.7681 15.6089 46.3521 15.8828C45.9361 16.1567 45.443 16.2894 44.9457 16.2613C44.4485 16.2331 43.9735 16.0456 43.5911 15.7265C43.2087 15.4074 42.9391 14.9736 42.8224 14.4894C42.7057 14.0052 42.748 13.4963 42.943 13.038C42.2782 13.413 41.7235 13.956 41.3344 14.6127C40.9454 15.2694 40.7356 16.0168 40.726 16.78V16.78Z" fill="#132F48"/>
</svg>
