<svg width="24" height="24" viewBox="0 0 24 24" fill="none" xmlns="http://www.w3.org/2000/svg">
<path d="M19.9369 21C19.7928 21 19.6501 20.9709 19.5176 20.9143C19.385 20.8577 19.2652 20.7749 19.1655 20.6709L14.2437 15.744C13.0468 16.6343 11.5939 17.1133 10.1023 17.1094H10.0714C8.67508 17.1069 7.31064 16.6917 6.1495 15.9162C4.98837 15.1406 4.08232 14.0392 3.54517 12.7504C3.00802 11.4615 2.86373 10.0427 3.13042 8.67209C3.39712 7.30149 4.0629 6.04027 5.04414 5.04686C6.3591 3.73998 8.13646 3.00447 9.99041 3L10.02 3C11.8939 3.01082 13.6879 3.76073 15.012 5.08676C16.3362 6.41279 17.0835 8.2078 17.0916 10.0817C17.1018 11.5762 16.6282 13.034 15.7416 14.2371L20.6698 19.1666C20.8237 19.3131 20.9302 19.5024 20.9755 19.71C21.0209 19.9176 21.0029 20.134 20.924 20.3314C20.8452 20.5287 20.709 20.6979 20.533 20.817C20.3571 20.9362 20.1495 20.9999 19.9369 21V21ZM9.99941 4.41429C9.2646 4.41214 8.53667 4.55582 7.85779 4.83699C7.1789 5.11816 6.56255 5.53123 6.04445 6.05229C5.26294 6.84859 4.73355 7.85763 4.52249 8.9532C4.31144 10.0488 4.42808 11.1823 4.85784 12.2119C5.28759 13.2415 6.01139 14.1216 6.9387 14.7421C7.86601 15.3625 8.95567 15.6958 10.0714 15.7003H10.0933C11.5697 15.6611 12.972 15.0448 13.9993 13.9836C15.0265 12.9224 15.5969 11.5008 15.588 10.0239C15.5791 8.54699 14.9916 7.1324 13.9516 6.08366C12.9116 5.03493 11.502 4.43561 10.0251 4.41429H9.99941Z" fill="#B8C0C8"/>
</svg>
